HIERARCHY
ROOT root
{
	OFFSET 0.000000 0.000000 0.000000
	CHANNELS 6 Xposition Yposition Zposition Zrotation Yrotation Xrotation
	JOINT lhip
	{
		OFFSET 0.058581 -0.082280 -0.017664
		CHANNELS 3 Zrotation Yrotation Xrotation
		JOINT lknee
		{
			OFFSET 0.043451 -0.386469 0.008037
			CHANNELS 3 Zrotation Yrotation Xrotation
			JOINT lankle
			{
				OFFSET -0.014790 -0.426874 -0.037428
				CHANNELS 3 Zrotation Yrotation Xrotation
				JOINT ltoe
				{
					OFFSET 0.041054 -0.060286 0.122042
					CHANNELS 3 Zrotation Yrotation Xrotation
					End Site
					{
						OFFSET 0.000000 0.000000 0.000000
					}
				}
			}
		}
	}
	JOINT rhip
	{
		OFFSET -0.060310 -0.090513 -0.013543
		CHANNELS 3 Zrotation Yrotation Xrotation
		JOINT rknee
		{
			OFFSET -0.043257 -0.383688 -0.004843
			CHANNELS 3 Zrotation Yrotation Xrotation
			JOINT rankle
			{
				OFFSET 0.019056 -0.420046 -0.034562
				CHANNELS 3 Zrotation Yrotation Xrotation
				JOINT rtoe
				{
					OFFSET -0.034840 -0.062106 0.130323
					CHANNELS 3 Zrotation Yrotation Xrotation
					End Site
					{
						OFFSET 0.000000 0.000000 0.000000
					}
				}
			}
		}
	}
	JOINT lowerback
	{
		OFFSET 0.004439 0.124404 -0.038385
		CHANNELS 3 Zrotation Yrotation Xrotation
		JOINT upperback
		{
			OFFSET 0.004488 0.137956 0.026820
			CHANNELS 3 Zrotation Yrotation Xrotation
			JOINT chest
			{
				OFFSET -0.002265 0.056032 0.002855
				CHANNELS 3 Zrotation Yrotation Xrotation
				JOINT lowerneck
				{
					OFFSET -0.013390 0.211636 -0.033468
					CHANNELS 3 Zrotation Yrotation Xrotation
					JOINT upperneck
					{
						OFFSET 0.010113 0.088937 0.050410
						CHANNELS 3 Zrotation Yrotation Xrotation
						End Site
						{
							OFFSET 0.000000 0.000000 0.000000
						}
					}
				}
				JOINT lclavicle
				{
					OFFSET 0.071702 0.114000 -0.018898
					CHANNELS 3 Zrotation Yrotation Xrotation
					JOINT lshoulder
					{
						OFFSET 0.122921 0.045205 -0.019046
						CHANNELS 3 Zrotation Yrotation Xrotation
						JOINT lelbow
						{
							OFFSET 0.255332 -0.015649 -0.022946
							CHANNELS 3 Zrotation Yrotation Xrotation
							JOINT lwrist
							{
								OFFSET 0.265709 0.012698 -0.007375
								CHANNELS 3 Zrotation Yrotation Xrotation
								End Site
								{
									OFFSET 0.000000 0.000000 0.000000
								}
							}
						}
					}
				}
				JOINT rclavicle
				{
					OFFSET -0.082954 0.112472 -0.023707
					CHANNELS 3 Zrotation Yrotation Xrotation
					JOINT rshoulder
					{
						OFFSET -0.113228 0.046853 -0.008472
						CHANNELS 3 Zrotation Yrotation Xrotation
						JOINT relbow
						{
							OFFSET -0.260127 -0.014369 -0.031269
							CHANNELS 3 Zrotation Yrotation Xrotation
							JOINT rwrist
							{
								OFFSET -0.269108 0.006794 -0.006027
								CHANNELS 3 Zrotation Yrotation Xrotation
								End Site
								{
									OFFSET 0.000000 0.000000 0.000000
								}
							}
						}
					}
				}
			}
		}
	}
}
MOTION
Frames: 5
Frame Time: 0.033333
-0.669619 1.917831 0.904115 -10.915738 -1.613933 93.416638 7.536874 10.944951 -40.105294 -5.485462 15.788175 29.330400 -0.172076 6.190548 -0.705756 0.000000 -0.000000 0.000000 -4.386144 -12.761657 -22.546548 -1.445742 -12.803575 57.087586 0.342431 -9.081334 -32.405025 0.000000 -0.000000 0.000000 1.031773 3.983154 47.088307 -5.733771 -0.927919 -5.053223 -0.197952 -1.423233 -2.487370 -14.310923 4.800694 -16.653810 -2.794938 9.472419 2.045753 -31.196083 -9.241412 3.810620 -38.311419 -3.860190 5.803269 14.471771 -53.992448 -11.337126 19.304989 -12.090957 -27.746940 27.181561 18.229500 5.255700 38.201741 7.276204 3.530756 -3.759521 27.303059 -26.212905 -13.342150 19.828157 -25.665387 
-0.665381 1.905302 0.903799 -10.308909 -1.196525 93.805534 7.434458 10.825445 -40.944895 -5.456919 15.548361 31.230191 0.442496 6.038812 -2.336099 0.000000 -0.000000 0.000000 -4.371349 -12.829254 -22.266022 -1.622019 -12.319491 57.504133 0.783907 -8.743656 -32.137801 0.000000 -0.000000 0.000000 0.870727 4.545462 46.824868 -5.522421 -0.844824 -5.063091 -0.316270 -1.128184 -2.165019 -13.004877 1.558683 -16.970760 -1.862872 4.302812 2.696132 -30.820848 -9.505108 3.872848 -38.386960 -4.635110 6.033253 14.708751 -53.602303 -11.395336 19.381644 -12.616110 -27.920146 27.002512 18.507886 4.821568 38.431117 7.069604 3.376793 -3.642862 27.189339 -25.611964 -13.501259 19.813488 -25.890307 
-0.661518 1.892647 0.903805 -9.636924 -0.869336 94.025664 7.400247 10.666862 -41.359827 -5.712804 15.293286 32.711423 0.970436 6.053823 -3.794475 0.000000 -0.000000 0.000000 -4.647065 -12.542231 -21.500684 -1.653335 -12.319468 57.548375 1.123051 -8.767954 -31.943946 0.000000 -0.000000 0.000000 0.572463 5.175102 46.661155 -5.276970 -0.866096 -4.546227 -0.313484 -0.928371 -2.123404 -11.619719 -1.997591 -17.179137 -0.899861 -1.180329 2.786165 -30.779726 -9.808512 3.878258 -38.066758 -5.219244 6.247178 15.272510 -53.702485 -12.353878 20.543331 -12.827707 -27.276601 26.672428 19.214236 4.308609 38.680821 6.687461 3.432864 -3.342080 27.251981 -25.111135 -14.530163 19.983454 -26.565361 
-0.657749 1.880971 0.904065 -9.025726 -0.413686 94.569843 7.488570 10.506373 -42.035953 -5.847653 15.147453 34.048768 1.200136 5.951651 -4.988304 0.000000 -0.000000 0.000000 -4.572841 -12.448218 -21.138907 -1.725145 -12.022176 57.517472 1.508574 -8.543695 -31.600288 0.000000 -0.000000 0.000000 0.338516 5.751524 46.791942 -5.027521 -0.861000 -4.993948 -0.361355 -0.792936 -1.934565 -9.957314 -5.264037 -17.515359 0.375114 -6.433474 3.082444 -30.692910 -9.817850 3.928053 -37.913096 -5.569979 6.527421 15.910215 -53.870950 -13.383155 20.693833 -12.777203 -27.084510 26.700955 19.394149 3.839928 38.824112 6.287499 3.810050 -3.597128 28.218727 -24.717218 -14.739439 19.678976 -26.821619 
-0.653730 1.869815 0.904554 -8.276519 -0.019337 94.848684 7.270313 10.362948 -42.482371 -5.753348 14.780565 35.332153 1.506626 5.761423 -6.278970 0.000000 -0.000000 0.000000 -4.578626 -12.588596 -20.415810 -1.798970 -11.721261 57.291187 1.754464 -7.952427 -30.987264 0.000000 -0.000000 0.000000 0.282458 6.099662 47.036214 -4.856283 -1.058290 -5.248600 -0.261793 -0.662165 -2.122889 -8.724013 -8.975775 -16.866824 1.794613 -10.556950 2.335200 -30.946179 -10.095152 4.706977 -37.508841 -5.678383 6.133406 15.969263 -53.609487 -13.491597 20.867044 -12.947231 -27.317500 26.398581 19.763072 3.850053 39.130520 6.221397 3.422329 -3.358042 28.906138 -23.561790 -15.371759 19.746606 -27.660170 
